<svg width="128" height="28" viewBox="0 0 128 28" fill="none" xmlns="http://www.w3.org/2000/svg">
<path fill-rule="evenodd" clip-rule="evenodd" d="M107.528 0V20.8013C107.528 21.404 108.016 21.8926 108.617 21.8926V26.9853C105.209 26.9853 102.446 24.2166 102.446 20.8013V0H107.528Z" fill="white"/>
<path d="M70.8634 17.1637C70.8634 14.552 72.9763 12.4348 75.5827 12.4348V7.34215C70.1695 7.34215 65.7812 11.7394 65.7812 17.1637V26.9853H70.8634V17.1637Z" fill="white"/>
<path d="M116.819 13.4918C116.819 12.8891 117.307 12.4005 117.908 12.4005H126.911V7.3079H117.908C114.5 7.3079 111.737 10.0765 111.737 13.4918C111.737 16.9071 114.5 19.6758 117.908 19.6758H121.829C122.43 19.6758 122.918 20.1644 122.918 20.7671C122.918 21.3698 122.43 21.8583 121.829 21.8583L112.826 21.8926V26.9853L121.829 26.951C125.237 26.951 128 24.1824 128 20.7671C128 17.3518 125.237 14.5831 121.829 14.5831H117.908C117.307 14.5831 116.819 14.0945 116.819 13.4918Z" fill="white"/>
<path fill-rule="evenodd" clip-rule="evenodd" d="M49.0823 7.34215V18.0731C49.0823 20.1825 50.7888 21.8926 52.894 21.8926C54.9991 21.8926 56.7057 20.1825 56.7057 18.0731V7.34215H61.788V18.0731C61.788 22.9951 57.806 26.9852 52.894 26.9852C47.982 26.9852 44 22.9951 44 18.0731V7.34215H49.0823Z" fill="white"/>
<path d="M78.8499 17.1637C78.8499 22.588 83.2381 26.9853 88.6513 26.9853H90.8295V21.8926L88.6513 21.8926C86.0449 21.8926 83.932 19.7753 83.932 17.1637C83.932 14.552 86.0449 12.4348 88.6513 12.4348C91.2577 12.4348 93.3705 14.552 93.3705 17.1637V26.9853H98.4528V17.1635C98.4527 11.7393 94.0644 7.34217 88.6513 7.34217C83.2381 7.34217 78.8499 11.7393 78.8499 17.1637Z" fill="white"/>
<path fill-rule="evenodd" clip-rule="evenodd" d="M13.3952 7.89203L6.46451 14.8369C4.62153 16.6837 4.62153 19.6778 6.46451 21.5246C8.30749 23.3713 11.2956 23.3713 13.1385 21.5246L20.0693 14.5797L23.663 18.1808L16.7322 25.1256C12.9045 28.9612 6.69853 28.9612 2.8708 25.1256C-0.956933 21.2901 -0.956933 15.0714 2.8708 11.2359L9.80152 4.29098L13.3952 7.89203Z" fill="white"/>
<path fill-rule="evenodd" clip-rule="evenodd" d="M21.6094 23.3251L28.5401 16.3802C30.3831 14.5335 30.3831 11.5393 28.5401 9.69256C26.6972 7.84581 23.7091 7.84581 21.8661 9.69256L14.9354 16.6374L11.3417 13.0364L18.2724 6.09151C22.1001 2.25596 28.3061 2.25595 32.1339 6.09151C35.9616 9.92706 35.9616 16.1457 32.1339 19.9813L25.2031 26.9262L21.6094 23.3251Z" fill="white"/>
</svg>
