<?xml version="1.0" standalone="no"?>
<!DOCTYPE svg PUBLIC "-//W3C//DTD SVG 20010904//EN"
 "http://www.w3.org/TR/2001/REC-SVG-20010904/DTD/svg10.dtd">
<svg version="1.0" xmlns="http://www.w3.org/2000/svg"
 width="386.000000pt" height="92.000000pt" viewBox="0 0 386.000000 92.000000"
 preserveAspectRatio="xMidYMid meet">

<g transform="translate(0.000000,92.000000) scale(0.100000,-0.100000)"
fill="#ffffff" stroke="none">
<path d="M3145 818 c-3 -7 -4 -155 -3 -328 l3 -315 65 0 65 0 0 325 0 325 -63
3 c-44 2 -64 -1 -67 -10z"/>
<path d="M2697 626 c-122 -44 -182 -175 -142 -312 41 -142 209 -202 302 -109
34 34 38 33 45 -10 3 -17 12 -20 66 -23 l62 -3 0 146 c0 158 -6 185 -56 244
-59 70 -183 100 -277 67z m144 -116 c10 -6 26 -24 34 -40 30 -58 11 -155 -34
-180 -27 -14 -94 -13 -113 3 -63 51 -64 179 -1 216 23 14 89 14 114 1z"/>
<path d="M1670 482 c0 -81 4 -163 10 -181 41 -143 281 -188 389 -73 44 48 51
81 51 247 l0 155 -65 0 -65 0 0 -146 0 -146 -29 -29 c-38 -37 -88 -39 -128 -5
l-28 24 -3 151 -3 151 -65 0 -64 0 0 -148z"/>
<path d="M2299 614 c-62 -26 -70 -59 -67 -264 l3 -175 63 -3 62 -3 0 164 c0
122 3 167 13 175 7 6 37 12 67 14 l55 3 0 50 0 50 -80 2 c-54 2 -92 -3 -116
-13z"/>
<path d="M3442 609 c-51 -25 -72 -62 -72 -123 0 -96 38 -128 162 -136 90 -5
112 -15 106 -46 -3 -17 -16 -19 -126 -22 l-122 -3 0 -54 0 -55 128 0 c147 0
198 16 232 72 39 64 17 167 -42 199 -13 7 -63 15 -113 18 -88 6 -90 7 -90 31
0 25 1 25 110 30 l110 5 3 53 3 52 -123 0 c-105 0 -129 -3 -166 -21z"/>
<path d="M184 610 c-11 -5 -43 -33 -72 -65 -57 -62 -66 -99 -34 -128 26 -24
56 -21 92 9 l31 27 49 -55 c103 -116 265 -197 437 -219 205 -26 425 53 578
208 l60 61 22 -24 c39 -44 103 -20 103 38 0 30 -69 127 -103 145 -37 19 -62 6
-105 -55 -83 -118 -175 -186 -306 -228 -149 -47 -310 -32 -446 43 -82 45 -121
79 -193 169 -59 74 -78 86 -113 74z"/>
</g>
</svg>
