<svg width="1024" height="224" viewBox="0 0 1024 224" fill="none" xmlns="http://www.w3.org/2000/svg">
<path fill-rule="evenodd" clip-rule="evenodd" d="M110.468 64.0626L44.2737 130.398C31.093 143.606 31.093 165.022 44.2737 178.231C57.4544 191.44 78.8246 191.44 92.0053 178.231L158.199 111.896L182.515 136.264L116.321 202.599C89.7113 229.266 46.5677 229.266 19.9576 202.599C-6.65253 175.932 -6.65253 132.697 19.9576 106.03L86.1515 39.6946L110.468 64.0626Z" fill="white"/>
<path fill-rule="evenodd" clip-rule="evenodd" d="M143.339 198.989L209.533 132.654C222.714 119.445 222.714 98.0293 209.533 84.8205C196.352 71.6116 174.982 71.6116 161.802 84.8205L95.6077 151.156L71.2916 126.788L137.485 60.4525C164.096 33.7856 207.239 33.7856 233.849 60.4525C260.459 87.1194 260.459 130.355 233.849 157.022L167.655 223.357L143.339 198.989Z" fill="white"/>
<path fill-rule="evenodd" clip-rule="evenodd" d="M810.029 224V0H844.417V224H810.029ZM697.312 96.3647C671.638 96.3647 650.825 117.222 650.825 142.952C650.825 168.681 671.638 189.538 697.312 189.538H716.417V224H697.312C652.646 224 616.436 187.713 616.436 142.952C616.436 98.1898 652.646 61.9031 697.312 61.9031C741.979 61.9031 778.188 98.1898 778.188 142.952V224H743.8V142.952C743.8 117.222 722.987 96.3647 697.312 96.3647ZM924.02 96.3647C915.93 96.3647 909.373 102.936 909.373 111.043C909.373 119.149 915.93 125.721 924.02 125.721H974.965C1002.05 125.721 1024 147.721 1024 174.86C1024 201.999 1002.05 224 974.965 224H878.169V189.538H974.965C983.054 189.538 989.612 182.967 989.612 174.86C989.612 166.754 983.054 160.182 974.965 160.182H924.02C896.938 160.182 874.985 138.182 874.985 111.043C874.985 83.9037 896.938 61.9031 924.02 61.9031H1006.81V96.3647H924.02ZM373.172 61.9031V155.715C373.172 174.395 388.283 189.538 406.923 189.538C425.564 189.538 440.675 174.395 440.675 155.715V61.9031H475.063V155.715C475.063 193.428 444.556 224 406.923 224C369.291 224 338.784 193.428 338.784 155.715V61.9031H373.172Z" fill="white"/>
<path d="M536.197 142.952C536.197 117.222 557.011 96.3647 582.685 96.3647C586.553 96.3647 590.296 96.8346 593.866 97.7168L613.422 67.9665C603.923 64.0528 593.533 61.9031 582.685 61.9031C538.019 61.9031 501.809 98.1898 501.809 142.952V220.809H536.197V142.952Z" fill="white"/>
</svg>
