<svg width="803" height="177" viewBox="0 0 803 177" fill="none" xmlns="http://www.w3.org/2000/svg">
<path fill-rule="evenodd" clip-rule="evenodd" d="M164.369 68.4582C153.825 57.9141 136.73 57.9141 126.186 68.4582L74.2132 120.431L55.8284 102.046L107.801 50.0735C128.499 29.3757 162.056 29.3757 182.754 50.0735C203.452 70.7713 203.452 104.329 182.754 125.027L130.782 176.999L112.397 158.614L164.369 106.642C174.913 96.0978 174.913 79.0024 164.369 68.4582ZM85.8805 52.1948L33.9081 104.167C23.364 114.711 23.364 131.807 33.9081 142.351C44.4523 152.895 61.5477 152.895 72.0919 142.351L124.064 90.3785L142.449 108.763L90.4767 160.736C69.7789 181.433 36.2211 181.433 15.5233 160.736C-5.17445 140.038 -5.17445 106.48 15.5233 85.7823L67.4957 33.81L85.8805 52.1948Z" fill="white"/>
<path fill-rule="evenodd" clip-rule="evenodd" d="M634.997 175.5V0H661.997V175.5H634.997ZM546.497 75.5C526.339 75.5 509.997 91.8416 509.997 112C509.997 132.158 526.339 148.5 546.497 148.5H561.497V175.5H546.497C511.427 175.5 482.997 147.07 482.997 112C482.997 76.9299 511.427 48.5 546.497 48.5C581.567 48.5 609.997 76.9299 609.997 112V175.5H582.997V112C582.997 91.8416 566.656 75.5 546.497 75.5ZM724.497 75.5C718.146 75.5 712.997 80.6487 712.997 87C712.997 93.3513 718.146 98.5 724.497 98.5H764.497C785.76 98.5 802.997 115.737 802.997 137C802.997 158.263 785.76 175.5 764.497 175.5H688.497V148.5H764.497C770.849 148.5 775.997 143.351 775.997 137C775.997 130.649 770.849 125.5 764.497 125.5H724.497C703.234 125.5 685.997 108.263 685.997 87C685.997 65.737 703.234 48.5 724.497 48.5H789.497V75.5H724.497ZM291.997 48.5V122C291.997 136.636 303.862 148.5 318.497 148.5C333.133 148.5 344.997 136.636 344.997 122V48.5H371.997V122C371.997 151.547 348.045 175.5 318.497 175.5C288.95 175.5 264.997 151.547 264.997 122V48.5H291.997Z" fill="white"/>
<path d="M419.997 112C419.997 91.8416 436.339 75.5 456.497 75.5C459.535 75.5 462.473 75.8682 465.276 76.5594L480.631 53.2505C473.173 50.1843 465.015 48.5 456.497 48.5C421.427 48.5 392.997 76.9299 392.997 112V173H419.997V112Z" fill="white"/>
</svg>
