<svg width="39" height="30" viewBox="0 0 39 30" fill="none" xmlns="http://www.w3.org/2000/svg">
<path fill-rule="evenodd" clip-rule="evenodd" d="M15.3952 6.67722L8.46451 13.6221C6.62153 15.4689 6.62153 18.463 8.46451 20.3098C10.3075 22.1565 13.2956 22.1565 15.1385 20.3098L22.0693 13.3649L25.663 16.966L18.7322 23.9108C14.9045 27.7464 8.69853 27.7464 4.8708 23.9108C1.04307 20.0753 1.04307 13.8566 4.8708 10.0211L11.8015 3.07617L15.3952 6.67722Z" fill="#3058DC"/>
<path fill-rule="evenodd" clip-rule="evenodd" d="M23.6095 22.1103L30.5402 15.1654C32.3832 13.3187 32.3832 10.3245 30.5402 8.47772C28.6973 6.63097 25.7092 6.63097 23.8662 8.47772L16.9355 15.4226L13.3418 11.8216L20.2725 4.87667C24.1002 1.04112 30.3062 1.04111 34.134 4.87667C37.9617 8.71222 37.9617 14.9309 34.134 18.7665L27.2032 25.7114L23.6095 22.1103Z" fill="#3058DC"/>
</svg>
