<svg width="185" height="60" viewBox="0 0 185 60" fill="none" xmlns="http://www.w3.org/2000/svg">
<g clip-path="url(#clip0_259_9)">
<path d="M16.578 1.67789C15.1114 2.34455 10.8447 6.07789 6.97803 10.3446C-0.621974 18.6112 -1.82197 23.5446 2.44469 27.4112C5.91136 30.6112 9.91136 30.2112 14.7114 26.2112L18.8447 22.6112L25.378 29.9446C39.1114 45.4112 60.7114 56.2112 83.6447 59.1446C110.978 62.6112 140.311 52.0779 160.711 31.4112L168.711 23.2779L171.645 26.4779C176.845 32.3446 185.378 29.1446 185.378 21.4112C185.378 17.4112 176.178 4.47788 171.645 2.07788C166.711 -0.455449 163.378 1.27789 157.645 9.41122C146.578 25.1446 134.311 34.2112 116.845 39.8112C96.978 46.0779 75.5114 44.0779 57.378 34.0779C46.4447 28.0779 41.2447 23.5446 31.6447 11.5446C23.778 1.67789 21.2447 0.0778868 16.578 1.67789Z" fill="#163AF5"/>
</g>
<defs>
<clipPath id="clip0_259_9">
<rect width="185" height="60" fill="white"/>
</clipPath>
</defs>
</svg>
